<?xml version="1.0" standalone="no"?>
<!DOCTYPE svg PUBLIC "-//W3C//DTD SVG 20010904//EN"
 "http://www.w3.org/TR/2001/REC-SVG-20010904/DTD/svg10.dtd">
<svg version="1.0" xmlns="http://www.w3.org/2000/svg"
 width="289.000000pt" height="289.000000pt" viewBox="0 0 289.000000 289.000000"
 preserveAspectRatio="xMidYMid meet">
<metadata>
Created by potrace 1.14, written by Peter Selinger 2001-2017
</metadata>
<g transform="translate(0.000000,289.000000) scale(0.100000,-0.100000)"
fill="#000000" stroke="none">
<path d="M1488 2707 c-16 -7 -38 -27 -51 -46 -23 -34 -25 -35 -103 -38 -234
-9 -461 -85 -658 -220 -73 -50 -81 -53 -109 -43 -41 14 -63 13 -102 -6 -61
-29 -87 -97 -61 -159 9 -21 11 -37 5 -40 -13 -9 -99 -139 -131 -200 -34 -65
-65 -144 -89 -225 -38 -127 -48 -204 -47 -360 1 -296 97 -557 291 -790 35 -42
43 -58 36 -72 -5 -9 -9 -34 -9 -56 0 -87 102 -148 180 -107 31 16 33 15 78
-14 121 -77 267 -134 425 -168 100 -21 373 -24 457 -4 30 7 65 15 78 17 55 11
182 59 262 99 120 60 232 143 327 241 200 207 310 437 348 734 8 56 8 233 1
268 -3 15 -8 45 -11 67 -24 172 -115 387 -225 533 -28 37 -49 74 -46 82 3 8
11 33 19 55 49 131 -37 305 -172 350 -98 32 -180 21 -263 -36 l-57 -39 -97 32
c-57 19 -98 38 -101 48 -17 53 -28 69 -62 88 -43 25 -73 27 -113 9z m75 -58
c28 -15 37 -28 37 -58 0 -59 -72 -82 -108 -36 -32 40 -10 90 46 104 2 1 13 -4
25 -10z m-131 -118 c27 -49 71 -68 140 -62 10 0 32 14 51 31 l34 29 59 -18
c119 -37 116 -35 97 -78 -20 -48 -21 -124 -2 -188 21 -72 105 -155 181 -179
92 -29 189 -11 271 48 17 12 31 17 35 11 182 -253 255 -460 256 -730 1 -176
-12 -261 -62 -405 -97 -277 -316 -526 -582 -660 -68 -34 -173 -76 -212 -84
-13 -3 -34 -8 -48 -11 -202 -48 -435 -38 -631 26 -75 25 -218 91 -271 127 -33
22 -38 29 -38 65 0 49 -31 101 -68 115 -53 20 -61 21 -90 13 -27 -8 -33 -5
-63 31 -134 160 -221 337 -265 540 -28 131 -24 347 10 507 23 107 108 295 180
396 42 60 42 60 94 61 89 3 144 59 136 140 -4 43 -4 44 58 90 77 56 238 135
335 164 97 29 212 48 303 49 73 1 75 0 92 -28z m775 -13 c174 -125 91 -399
-121 -400 -171 -1 -276 167 -200 320 60 120 212 158 321 80z m-1648 -222 c5
-3 14 -19 19 -36 21 -59 -53 -106 -100 -63 -18 16 -24 59 -10 79 18 27 63 37
91 20z m65 -1791 c25 -25 29 -54 12 -80 -9 -14 -22 -25 -29 -26 -6 0 -20 -2
-29 -4 -21 -4 -58 39 -58 66 0 46 71 76 104 44z"/>
<path d="M1302 2078 c-193 -22 -361 -118 -479 -273 -40 -52 -103 -171 -103
-193 0 -5 136 -8 302 -8 317 1 345 -3 322 -41 -10 -17 -35 -18 -325 -21 -172
-1 -317 -6 -321 -10 -4 -4 -9 -32 -12 -63 l-6 -56 253 1 c138 1 260 -2 270 -7
21 -10 22 -43 1 -51 -9 -3 -131 -6 -271 -6 l-255 0 7 -47 c22 -156 79 -283
175 -389 131 -144 301 -223 495 -230 195 -7 380 65 518 200 88 88 95 83 -140
83 -188 0 -207 1 -219 18 -30 41 -7 45 242 45 l233 0 26 55 c14 31 25 60 25
65 0 6 -128 11 -327 12 -310 3 -328 4 -331 22 -2 10 0 22 6 28 5 5 142 9 340
9 l331 -1 11 38 c17 64 6 257 -20 332 -27 77 -65 156 -80 165 -6 4 -95 8 -197
9 -161 1 -187 3 -196 18 -8 12 -7 21 1 31 10 12 42 15 167 14 85 0 158 2 162
6 16 16 -116 126 -207 172 -102 52 -167 68 -310 79 -14 1 -53 -1 -88 -6z"/>
<path d="M2631 2302 c-113 -18 -139 -180 -38 -234 58 -31 127 -14 166 41 23
32 28 90 9 124 -13 25 -58 67 -73 68 -5 0 -17 2 -25 3 -8 1 -26 0 -39 -2z m62
-74 c9 -7 19 -25 22 -40 9 -36 -34 -83 -68 -73 -28 9 -57 42 -57 66 0 45 66
75 103 47z"/>
<path d="M2586 580 c-78 -24 -112 -118 -69 -191 20 -34 46 -49 96 -55 105 -12
174 113 110 200 -28 39 -90 59 -137 46z m77 -74 c22 -17 26 -72 6 -91 -26 -25
-55 -26 -82 -4 -65 51 10 144 76 95z"/>
</g>
</svg>
